<svg version="1.1" id="Layer_1" xmlns="http://www.w3.org/2000/svg" xmlns:xlink="http://www.w3.org/1999/xlink" x="0px" y="0px"
	 width="100%" viewBox="0 0 577 433" enable-background="new 0 0 577 433" xml:space="preserve">
<path fill="#000000" opacity="1.000000" stroke="none" 
	d="
M309.000000,434.000000 
	C206.000031,434.000000 103.500046,434.000000 1.000055,434.000000 
	C1.000037,289.666718 1.000037,145.333450 1.000018,1.000133 
	C193.333237,1.000088 385.666473,1.000088 577.999756,1.000044 
	C577.999878,145.333191 577.999878,289.666382 577.999939,433.999786 
	C488.500000,434.000000 399.000000,434.000000 309.000000,434.000000 
M253.999390,146.000000 
	C253.999390,146.000000 253.972672,145.977966 253.371323,146.283997 
	C252.538788,147.561310 251.706253,148.838623 250.426926,150.205154 
	C250.161728,150.396667 250.015305,150.655472 249.054794,150.991745 
	C241.392059,151.090408 233.630341,150.213409 226.421082,153.998016 
	C217.855133,158.494873 210.186142,163.900208 204.926834,172.964859 
	C191.676224,172.224319 179.912842,175.266876 169.708054,184.548660 
	C160.646469,192.790619 155.694977,202.643936 155.132980,214.597214 
	C154.555939,226.870605 157.765900,237.785736 166.476440,247.277634 
	C173.956772,255.428909 182.372162,260.698456 193.321716,262.007721 
	C197.816360,262.545135 202.285751,263.293854 207.137268,264.577240 
	C211.353760,271.154053 217.036224,276.131653 223.797302,279.965210 
	C231.951111,284.588409 240.924881,285.020660 250.210953,285.814270 
	C253.208450,288.772278 256.109833,291.836060 259.223175,294.666656 
	C266.015961,300.842560 273.603638,305.815216 282.901215,306.930023 
	C293.221222,308.167419 303.111755,306.065613 311.914276,300.483337 
	C318.295074,296.436829 325.088928,292.572113 328.626740,284.700592 
	C329.087830,284.393616 329.548920,284.086639 330.905334,283.936096 
	C337.104645,283.756134 343.507019,285.633423 349.368835,282.039398 
	C351.135040,280.956451 352.886993,279.733887 354.813965,279.049591 
	C363.383179,276.006622 368.718475,269.615509 373.492065,261.945160 
	C373.670258,261.911194 373.848419,261.877197 374.799896,261.931824 
	C375.568665,261.844543 376.337402,261.757233 377.822021,261.731659 
	C378.538177,261.694580 379.254364,261.657501 380.864899,261.823883 
	C388.314606,262.557526 395.258636,261.574005 401.242920,255.358093 
	C403.466766,254.230652 405.690613,253.103210 408.625092,251.936584 
	C409.653870,250.656708 410.557892,249.247314 411.730896,248.117111 
	C422.777313,237.473663 426.895905,218.574921 420.904968,204.280930 
	C420.815399,203.886185 420.725830,203.491455 420.823883,202.395203 
	C419.574158,199.916931 418.324402,197.438675 416.748444,194.337204 
	C412.554138,189.780029 408.932098,184.447769 404.040009,180.835648 
	C395.298065,174.381027 384.866211,172.681595 373.654785,173.027603 
	C373.654785,173.027603 373.188629,172.949875 372.922546,172.293976 
	C362.288849,157.759186 348.876923,148.898865 329.277222,151.133835 
	C328.809814,151.091125 328.342438,151.048401 327.888550,150.262268 
	C326.316925,148.357407 324.565857,146.571732 323.207123,144.525513 
	C319.015045,138.212555 312.978455,134.500763 305.866364,131.430405 
	C305.546112,131.370209 305.225891,131.310028 304.319000,131.117355 
	C303.920746,131.070923 303.522461,131.024490 302.743347,130.313644 
	C300.812317,129.941895 298.881256,129.570129 296.329987,129.107773 
	C295.914215,129.069504 295.498444,129.031235 294.629456,128.237732 
	C286.456207,126.945496 278.497833,128.272018 271.150330,131.612289 
	C265.175262,134.328613 258.898346,137.256134 255.999756,143.998016 
	C255.999756,143.998016 256.011566,144.022522 255.287369,144.013855 
	C254.848404,144.668839 254.409439,145.323822 253.999390,146.000000 
z"/>
<path fill="#850142" opacity="1.000000" stroke="none" 
	d="
M330.010040,283.779694 
	C329.548920,284.086639 329.087830,284.393616 328.123718,284.540833 
	C326.565369,283.934296 325.549438,283.285553 324.448883,283.070831 
	C304.967590,279.270477 290.303741,262.253571 289.996979,242.427246 
	C289.716309,224.289246 289.902618,206.144012 290.035095,187.648621 
	C291.467438,183.391785 292.275116,179.248428 294.112183,175.627304 
	C301.145538,161.763626 312.397400,153.421432 327.875031,151.005676 
	C328.342438,151.048401 328.809814,151.091125 329.530762,151.488922 
	C330.855072,156.318680 332.632233,160.757004 332.864624,165.274796 
	C333.570679,178.999054 333.655121,192.754730 334.046814,206.496307 
	C334.107178,208.615158 334.510132,210.724228 334.773773,213.304779 
	C334.777100,216.577393 334.761292,219.383057 334.563171,222.531982 
	C334.272308,227.167801 334.179474,231.460785 334.052155,235.752747 
	C333.709076,247.315063 333.586243,258.891327 332.881195,270.431824 
	C332.606842,274.922821 331.006439,279.332794 330.010040,283.779694 
z"/>
<path fill="#FBB439" opacity="1.000000" stroke="none" 
	d="
M206.766632,263.946472 
	C202.285751,263.293854 197.816360,262.545135 193.321716,262.007721 
	C182.372162,260.698456 173.956772,255.428909 166.476440,247.277634 
	C157.765900,237.785736 154.555939,226.870605 155.132980,214.597214 
	C155.694977,202.643936 160.646469,192.790619 169.708054,184.548660 
	C179.912842,175.266876 191.676224,172.224319 205.445953,173.278275 
	C206.000061,173.807587 206.035065,174.023468 205.855270,174.499268 
	C203.764740,180.530594 200.528091,186.242172 200.271194,192.084793 
	C199.532623,208.882294 199.471268,225.757767 200.267776,242.549286 
	C200.559906,248.707382 204.004745,254.715927 206.110443,261.106628 
	C206.395187,262.262543 206.580917,263.104492 206.766632,263.946472 
z"/>
<path fill="#4D01AC" opacity="1.000000" stroke="none" 
	d="
M374.097351,173.192947 
	C384.866211,172.681595 395.298065,174.381027 404.040009,180.835648 
	C408.932098,184.447769 412.554138,189.780029 416.712524,194.904114 
	C417.996490,198.012909 419.316376,200.554810 420.636261,203.096710 
	C420.725830,203.491455 420.815399,203.886185 420.779297,204.871597 
	C420.636993,206.745544 420.426331,208.061111 420.633575,209.307159 
	C422.837067,222.555435 420.438995,234.570587 411.618866,245.082626 
	C409.977325,247.039047 409.128937,249.660980 407.914490,251.975769 
	C405.690613,253.103210 403.466766,254.230652 400.655579,255.671036 
	C394.207764,257.381531 388.338806,258.745239 382.495697,260.212189 
	C381.593048,260.438812 380.809265,261.139160 379.970520,261.620422 
	C379.254364,261.657501 378.538177,261.694580 377.340485,261.431274 
	C376.189056,260.756927 375.519165,260.382996 374.874390,259.620850 
	C375.005768,258.200928 375.112030,257.169250 375.502045,255.987823 
	C376.146698,254.877441 376.507629,253.916809 376.893982,252.627548 
	C376.948761,251.860428 376.978149,251.421951 377.284424,250.791046 
	C377.987854,249.378281 378.414368,248.157928 378.861023,246.473267 
	C377.701508,221.709686 382.704407,197.004257 374.097351,173.192947 
z"/>
<path fill="#2B0169" opacity="1.000000" stroke="none" 
	d="
M377.007538,250.983459 
	C376.978149,251.421951 376.948761,251.860428 376.597290,252.760880 
	C375.922913,254.194397 375.570587,255.165970 375.218262,256.137543 
	C375.112030,257.169250 375.005768,258.200928 374.702881,259.810974 
	C374.346405,260.873932 374.186523,261.358551 374.026611,261.843201 
	C373.848419,261.877197 373.670258,261.911194 372.870361,261.844727 
	C370.493652,261.252197 368.748840,260.719513 366.982025,260.274200 
	C349.257904,255.806992 336.082336,240.249420 334.745483,222.188705 
	C334.761292,219.383057 334.777100,216.577393 334.821899,212.896515 
	C335.220947,203.207916 339.119293,195.788528 344.450348,189.136963 
	C351.809265,179.955185 361.937592,175.381454 373.188629,172.949875 
	C373.188629,172.949875 373.654785,173.027603 373.876068,173.110275 
	C382.704407,197.004257 377.701508,221.709686 378.583191,246.580032 
	C377.859375,248.428558 377.433441,249.706009 377.007538,250.983459 
z"/>
<path fill="#F73F70" opacity="1.000000" stroke="none" 
	d="
M289.883148,188.001968 
	C289.902618,206.144012 289.716309,224.289246 289.996979,242.427246 
	C290.303741,262.253571 304.967590,279.270477 324.448883,283.070831 
	C325.549438,283.285553 326.565369,283.934296 327.869446,284.653809 
	C325.088928,292.572113 318.295074,296.436829 311.914276,300.483337 
	C303.111755,306.065613 293.221222,308.167419 282.901215,306.930023 
	C273.603638,305.815216 266.015961,300.842560 259.223175,294.666656 
	C256.109833,291.836060 253.208450,288.772278 250.255920,285.316833 
	C250.523209,284.364380 250.745544,283.909363 251.397705,283.374512 
	C270.184753,283.014343 288.639435,262.790222 288.934845,243.950943 
	C289.227264,225.303955 289.041290,206.649460 289.269653,187.999008 
	C289.474152,187.999756 289.883148,188.001968 289.883148,188.001968 
z"/>
<path fill="#F73F6F" opacity="1.000000" stroke="none" 
	d="
M290.035095,187.648621 
	C289.883148,188.001968 289.474152,187.999756 289.104675,187.657013 
	C286.885345,177.004959 281.758026,168.576218 274.128906,161.514420 
	C267.839996,155.693192 260.007233,153.187485 252.224548,150.588959 
	C252.920609,148.859314 253.446625,147.418640 253.972656,145.977966 
	C253.972672,145.977966 253.999390,146.000000 254.289429,145.928314 
	C255.056824,145.245270 255.534195,144.633896 256.011566,144.022522 
	C256.011566,144.022522 255.999756,143.998016 256.359222,143.961243 
	C257.809265,143.213943 259.050720,142.658295 259.965485,141.767227 
	C265.130249,136.736206 270.801300,132.607147 278.124481,131.439529 
	C283.763885,130.540375 289.428986,129.802536 295.082672,128.992966 
	C295.498444,129.031235 295.914215,129.069504 296.851837,129.405670 
	C299.290527,130.128403 301.207367,130.553238 303.124207,130.978058 
	C303.522461,131.024490 303.920746,131.070923 304.655029,131.360794 
	C305.352661,131.710022 305.714233,131.815796 306.075806,131.921585 
	C312.978455,134.500763 319.015045,138.212555 323.207123,144.525513 
	C324.565857,146.571732 326.316925,148.357407 327.881775,150.633972 
	C312.397400,153.421432 301.145538,161.763626 294.112183,175.627304 
	C292.275116,179.248428 291.467438,183.391785 290.035095,187.648621 
z"/>
<path fill="#F49046" opacity="1.000000" stroke="none" 
	d="
M250.967896,283.454346 
	C250.745544,283.909363 250.523209,284.364380 250.129486,285.009216 
	C240.924881,285.020660 231.951111,284.588409 223.797302,279.965210 
	C217.036224,276.131653 211.353760,271.154053 206.951950,264.261841 
	C206.580917,263.104492 206.395187,262.262543 206.532532,261.166229 
	C217.929291,260.766632 226.839310,255.473785 233.164536,247.199356 
	C238.137436,240.693939 240.955811,232.541534 244.767090,225.579926 
	C244.831940,237.787491 244.695557,249.539886 244.980774,261.282074 
	C245.079010,265.325928 246.228546,269.344299 246.971710,273.733337 
	C248.353027,277.213013 249.660461,280.333679 250.967896,283.454346 
z"/>
<path fill="#F49046" opacity="1.000000" stroke="none" 
	d="
M206.070068,174.239365 
	C206.035065,174.023468 206.000061,173.807587 205.902390,173.270340 
	C210.186142,163.900208 217.855133,158.494873 226.421082,153.998016 
	C233.630341,150.213409 241.392059,151.090408 249.533813,151.001160 
	C250.012833,151.010574 250.039200,151.038574 250.002563,151.403656 
	C248.935349,155.069138 247.904785,158.369553 246.634720,162.006226 
	C245.896103,167.919998 245.096756,173.490219 244.961090,179.076569 
	C244.687683,190.332733 244.775497,201.597672 244.573318,212.521606 
	C242.933563,200.480026 237.830475,190.614639 228.602737,183.281921 
	C222.091095,178.107483 214.968506,173.783127 206.070068,174.239365 
z"/>
<path fill="#841392" opacity="1.000000" stroke="none" 
	d="
M334.563202,222.531982 
	C336.082336,240.249420 349.257904,255.806992 366.982025,260.274200 
	C368.748840,260.719513 370.493652,261.252197 372.600098,261.876343 
	C368.718475,269.615509 363.383179,276.006622 354.813965,279.049591 
	C352.886993,279.733887 351.135040,280.956451 349.368835,282.039398 
	C343.507019,285.633423 337.104645,283.756134 330.457703,283.857910 
	C331.006439,279.332794 332.606842,274.922821 332.881195,270.431824 
	C333.586243,258.891327 333.709076,247.315063 334.052155,235.752747 
	C334.179474,231.460785 334.272308,227.167801 334.563202,222.531982 
z"/>
<path fill="#841392" opacity="1.000000" stroke="none" 
	d="
M373.055603,172.621918 
	C361.937592,175.381454 351.809265,179.955185 344.450348,189.136963 
	C339.119293,195.788528 335.220947,203.207916 334.802765,212.429565 
	C334.510132,210.724228 334.107178,208.615158 334.046814,206.496307 
	C333.655121,192.754730 333.570679,178.999054 332.864624,165.274796 
	C332.632233,160.757004 330.855072,156.318680 329.876678,151.553894 
	C348.876923,148.898865 362.288849,157.759186 373.055603,172.621918 
z"/>
<path fill="#400D84" opacity="1.000000" stroke="none" 
	d="
M408.269775,251.956177 
	C409.128937,249.660980 409.977325,247.039047 411.618866,245.082626 
	C420.438995,234.570587 422.837067,222.555435 420.633575,209.307159 
	C420.426331,208.061111 420.636993,206.745544 420.875641,205.159485 
	C426.895905,218.574921 422.777313,237.473663 411.730896,248.117111 
	C410.557892,249.247314 409.653870,250.656708 408.269775,251.956177 
z"/>
<path fill="#CC4E72" opacity="1.000000" stroke="none" 
	d="
M294.856079,128.615356 
	C289.428986,129.802536 283.763885,130.540375 278.124481,131.439529 
	C270.801300,132.607147 265.130249,136.736206 259.965485,141.767227 
	C259.050720,142.658295 257.809265,143.213943 256.370697,143.968964 
	C258.898346,137.256134 265.175262,134.328613 271.150330,131.612289 
	C278.497833,128.272018 286.456207,126.945496 294.856079,128.615356 
z"/>
<path fill="#400D84" opacity="1.000000" stroke="none" 
	d="
M380.417725,261.722168 
	C380.809265,261.139160 381.593048,260.438812 382.495697,260.212189 
	C388.338806,258.745239 394.207764,257.381531 400.451202,255.963608 
	C395.258636,261.574005 388.314606,262.557526 380.417725,261.722168 
z"/>
<path fill="#400D84" opacity="1.000000" stroke="none" 
	d="
M420.730072,202.745956 
	C419.316376,200.554810 417.996490,198.012909 416.875610,195.215729 
	C418.324402,197.438675 419.574158,199.916931 420.730072,202.745956 
z"/>
<path fill="#CC4E72" opacity="1.000000" stroke="none" 
	d="
M302.933777,130.645844 
	C301.207367,130.553238 299.290527,130.128403 297.161957,129.450974 
	C298.881256,129.570129 300.812317,129.941895 302.933777,130.645844 
z"/>
<path fill="#CC4E72" opacity="1.000000" stroke="none" 
	d="
M253.671997,146.130981 
	C253.446625,147.418640 252.920609,148.859314 251.914062,150.602905 
	C251.227325,150.891174 251.021103,150.876556 250.816345,150.674377 
	C250.817810,150.486832 250.873718,150.115921 250.873718,150.115921 
	C251.706253,148.838623 252.538788,147.561310 253.671997,146.130981 
z"/>
<path fill="#400D84" opacity="1.000000" stroke="none" 
	d="
M374.413269,261.887512 
	C374.186523,261.358551 374.346405,260.873932 374.677795,260.199158 
	C375.519165,260.382996 376.189056,260.756927 376.982544,261.400391 
	C376.337402,261.757233 375.568665,261.844543 374.413269,261.887512 
z"/>
<path fill="#CC4E72" opacity="1.000000" stroke="none" 
	d="
M255.649475,144.018188 
	C255.534195,144.633896 255.056824,145.245270 254.274963,145.917725 
	C254.409439,145.323822 254.848404,144.668839 255.649475,144.018188 
z"/>
<path fill="#CC4E72" opacity="1.000000" stroke="none" 
	d="
M305.971069,131.675995 
	C305.714233,131.815796 305.352661,131.710022 304.948364,131.427032 
	C305.225891,131.310028 305.546112,131.370209 305.971069,131.675995 
z"/>
<path fill="#F49046" opacity="1.000000" stroke="none" 
	d="
M250.650330,150.160538 
	C250.873718,150.115921 250.817810,150.486832 250.627533,150.738358 
	C250.437241,150.989883 250.039200,151.038574 250.039200,151.038574 
	C250.039200,151.038574 250.012833,151.010574 250.000244,150.996063 
	C250.015305,150.655472 250.161728,150.396667 250.650330,150.160538 
z"/>
<path fill="#F7640C" opacity="1.000000" stroke="none" 
	d="
M205.855270,174.499268 
	C214.968506,173.783127 222.091095,178.107483 228.602737,183.281921 
	C237.830475,190.614639 242.933563,200.480026 244.647263,212.989807 
	C244.818542,217.570496 244.774887,221.345627 244.731262,225.120743 
	C240.955811,232.541534 238.137436,240.693939 233.164536,247.199356 
	C226.839310,255.473785 217.929291,260.766632 206.433502,260.852295 
	C204.004745,254.715927 200.559906,248.707382 200.267776,242.549286 
	C199.471268,225.757767 199.532623,208.882294 200.271194,192.084793 
	C200.528091,186.242172 203.764740,180.530594 205.855270,174.499268 
z"/>
<path fill="#400D84" opacity="1.000000" stroke="none" 
	d="
M377.284424,250.791046 
	C377.433441,249.706009 377.859375,248.428558 378.563080,247.044342 
	C378.414368,248.157928 377.987854,249.378281 377.284424,250.791046 
z"/>
<path fill="#400D84" opacity="1.000000" stroke="none" 
	d="
M375.502014,255.987823 
	C375.570587,255.165970 375.922913,254.194397 376.571899,253.089508 
	C376.507629,253.916809 376.146698,254.877441 375.502014,255.987823 
z"/>
<path fill="#F6221D" opacity="1.000000" stroke="none" 
	d="
M250.002563,151.403656 
	C250.039200,151.038574 250.437241,150.989883 250.626053,150.925903 
	C251.021103,150.876556 251.227325,150.891174 251.744034,150.891876 
	C260.007233,153.187485 267.839996,155.693192 274.128906,161.514420 
	C281.758026,168.576218 286.885345,177.004959 288.900177,187.656281 
	C289.041290,206.649460 289.227264,225.303955 288.934845,243.950943 
	C288.639435,262.790222 270.184753,283.014343 251.397705,283.374512 
	C249.660461,280.333679 248.353027,277.213013 247.003983,273.255432 
	C246.646332,263.786804 246.027542,255.153595 246.069855,246.523605 
	C246.208542,218.238419 246.587570,189.954407 246.874222,161.669952 
	C247.904785,158.369553 248.935349,155.069138 250.002563,151.403656 
z"/>
<path fill="#DF290D" opacity="1.000000" stroke="none" 
	d="
M246.634720,162.006226 
	C246.587570,189.954407 246.208542,218.238419 246.069855,246.523605 
	C246.027542,255.153595 246.646332,263.786804 246.930084,272.896423 
	C246.228546,269.344299 245.079010,265.325928 244.980774,261.282074 
	C244.695557,249.539886 244.831940,237.787491 244.767075,225.579926 
	C244.774887,221.345627 244.818542,217.570496 244.788254,213.327179 
	C244.775497,201.597672 244.687683,190.332733 244.961090,179.076569 
	C245.096756,173.490219 245.896103,167.919998 246.634720,162.006226 
z"/>
</svg>